<svg xmlns="http://www.w3.org/2000/svg" xml:space="preserve" style="fill-rule:evenodd;clip-rule:evenodd;stroke-linejoin:round;stroke-miterlimit:2" viewBox="0 0 24 24"><path d="m5.531 2.294.021-.198.147-.472.231-.423.304-.367.367-.304.423-.231.472-.147L8 .1l.504.052.472.147.423.231.367.304.304.367.231.423.147.472.052.504-.052.504-.147.472-.231.423-.304.367-.367.304-.423.231-.472.147L8 5.1l-.504-.052-.472-.147-.423-.231-.367-.304-.304-.367-.231-.423-.147-.472-.021-.198a1.5 1.5 0 0 1 0-.612m0 9.4.021-.198.147-.472.231-.423.304-.367.367-.304.423-.231.472-.147L8 9.5l.504.052.472.147.423.231.367.304.304.367.231.423.147.472.052.504-.052.504-.147.472-.231.423-.304.367-.367.304-.423.231-.472.147L8 14.5l-.504-.052-.472-.147-.423-.231-.367-.304-.304-.367-.231-.423-.147-.472-.021-.198a1.5 1.5 0 0 1 0-.612m0 9.3.021-.198.147-.472.231-.423.304-.367.367-.304.423-.231.472-.147L8 18.8l.504.052.472.147.423.231.367.304.304.367.231.423.147.472.052.504-.052.504-.147.472-.231.423-.304.367-.367.304-.423.231-.472.147L8 23.8l-.504-.052-.472-.147-.423-.231-.367-.304-.304-.367-.231-.423-.147-.472-.021-.198a1.5 1.5 0 0 1 0-.612m8-18.7.021-.198.147-.472.231-.423.304-.367.367-.304.423-.231.472-.147L16 .1l.504.052.472.147.423.231.367.304.304.367.231.423.147.472.052.504-.052.504-.147.472-.231.423-.304.367-.367.304-.423.231-.472.147L16 5.1l-.504-.052-.472-.147-.423-.231-.367-.304-.304-.367-.231-.423-.147-.472-.021-.198a1.5 1.5 0 0 1 0-.612m0 9.4.021-.198.147-.472.231-.423.304-.367.367-.304.423-.231.472-.147L16 9.5l.504.052.472.147.423.231.367.304.304.367.231.423.147.472.052.504-.052.504-.147.472-.231.423-.304.367-.367.304-.423.231-.472.147L16 14.5l-.504-.052-.472-.147-.423-.231-.367-.304-.304-.367-.231-.423-.147-.472-.021-.198a1.5 1.5 0 0 1 0-.612m0 9.3.021-.198.147-.472.231-.423.304-.367.367-.304.423-.231.472-.147L16 18.8l.504.052.472.147.423.231.367.304.304.367.231.423.147.472.052.504-.052.504-.147.472-.231.423-.304.367-.367.304-.423.231-.472.147L16 23.8l-.504-.052-.472-.147-.423-.231-.367-.304-.304-.367-.231-.423-.147-.472-.021-.198a1.5 1.5 0 0 1 0-.612"/></svg>