<?xml version="1.0" encoding="UTF-8" standalone="no"?>
<!DOCTYPE svg PUBLIC "-//W3C//DTD SVG 1.1//EN" "http://www.w3.org/Graphics/SVG/1.1/DTD/svg11.dtd">
<svg width="100%" height="100%" viewBox="0 0 24 24" version="1.1" xmlns="http://www.w3.org/2000/svg" xmlns:xlink="http://www.w3.org/1999/xlink" xml:space="preserve" xmlns:serif="http://www.serif.com/" style="fill-rule:evenodd;clip-rule:evenodd;stroke-linejoin:round;stroke-miterlimit:2;">
    <g id="Expanded">
        <g transform="matrix(1.21111,0,0,1.21111,-2.53333,-2.53333)">
            <path d="M5,11.174C5.456,11.174 5.826,11.544 5.826,12C5.826,12.456 5.456,12.826 5,12.826L3,12.826C2.666,12.826 2.365,12.625 2.237,12.316C2.109,12.007 2.18,11.652 2.416,11.416L11.416,2.416C11.739,2.094 12.261,2.094 12.584,2.416L21.584,11.416C21.82,11.652 21.891,12.007 21.763,12.316C21.635,12.625 21.334,12.826 21,12.826L19,12.826C18.544,12.826 18.174,12.456 18.174,12C18.174,11.544 18.544,11.174 19,11.174L19.007,11.174C19.007,11.174 12,4.168 12,4.168L4.993,11.174L5,11.174Z"/>
        </g>
        <g transform="matrix(1.21111,0,0,1.21111,-2.53333,-2.53333)">
            <path d="M4.174,12C4.174,11.544 4.544,11.174 5,11.174C5.456,11.174 5.826,11.544 5.826,12L5.826,19C5.826,19.644 6.356,20.174 7,20.174L17,20.174C17.644,20.174 18.174,19.644 18.174,19L18.174,12C18.174,11.544 18.544,11.174 19,11.174C19.456,11.174 19.826,11.544 19.826,12L19.826,19C19.826,20.55 18.55,21.826 17,21.826L7,21.826C5.45,21.826 4.174,20.55 4.174,19L4.174,12Z"/>
        </g>
        <g transform="matrix(1.21111,0,0,1.21111,-2.53333,-2.53333)">
            <path d="M9.826,21C9.826,21.456 9.456,21.826 9,21.826C8.544,21.826 8.174,21.456 8.174,21L8.174,15C8.174,13.45 9.45,12.174 11,12.174L13,12.174C14.55,12.174 15.826,13.45 15.826,15L15.826,21C15.826,21.456 15.456,21.826 15,21.826C14.544,21.826 14.174,21.456 14.174,21L14.174,15C14.174,14.356 13.644,13.826 13,13.826L11,13.826C10.356,13.826 9.826,14.356 9.826,15L9.826,21Z"/>
        </g>
    </g>
</svg>
