<svg xmlns="http://www.w3.org/2000/svg" xml:space="preserve" style="fill-rule:evenodd;clip-rule:evenodd;stroke-linejoin:round;stroke-miterlimit:2" viewBox="0 0 24 24"><path d="M13 4.667a1 1 0 1 1-2 0V1a1 1 0 1 1 2 0zm4.902 2.846c-.391.39-1.024.39-1.415 0a1.003 1.003 0 0 1 0-1.415l2.628-2.628a1.003 1.003 0 0 1 1.415 0c.39.391.39 1.024 0 1.415zM19.333 13a1 1 0 1 1 0-2H23a1 1 0 1 1 0 2zm-2.846 4.902a1.003 1.003 0 0 1 0-1.415 1.003 1.003 0 0 1 1.415 0l2.628 2.628c.39.39.39 1.024 0 1.415-.391.39-1.024.39-1.415 0zM11 19.333a1 1 0 1 1 2 0V23a1 1 0 1 1-2 0zm-4.902-2.846a1.003 1.003 0 0 1 1.415 0c.39.39.39 1.024 0 1.415L4.885 20.53c-.39.39-1.024.39-1.415 0a1.003 1.003 0 0 1 0-1.415zM4.667 11a1 1 0 1 1 0 2H1a1 1 0 1 1 0-2zm2.846-4.902c.39.391.39 1.024 0 1.415-.39.39-1.024.39-1.415 0L3.47 4.885a1.003 1.003 0 0 1 0-1.415 1.003 1.003 0 0 1 1.415 0z"/></svg>