<svg xmlns="http://www.w3.org/2000/svg" xml:space="preserve" style="fill-rule:evenodd;clip-rule:evenodd;stroke-linejoin:round;stroke-miterlimit:2" viewBox="0 0 24 24"><ellipse cx="17.63" cy="6.876" rx=".171" ry=".188" transform="matrix(5.81427 0 0 5.49352 -90.275 -36.232)"/><path d="M12.23.01c.82 0 1.494.68 1.494 1.532 0 .851-.674 1.532-1.494 1.532s-1.494-.68-1.494-1.532S11.41.009 12.23.009m0 .999c-.279 0-.494.242-.494.533 0 .29.215.533.494.533.28 0 .494-.242.494-.533s-.215-.533-.494-.533"/><path d="M10.898 1.407q.428-.524.926-.992l.572 1.447V.009h.454a1.499 1.499 0 0 1 1.026 2.595 7.3 7.3 0 0 0-2.293 5.315c0 3.974 3.23 7.25 7.165 7.25a7.1 7.1 0 0 0 2.685-.528 1.5 1.5 0 0 1 1.955 1.96c-1.842 4.473-6.193 7.4-10.99 7.4C5.875 24 .5 18.586.5 12S5.874.002 12.396 0a1.5 1.5 0 0 0-1.498 1.407M9.594 3.464A9.05 9.05 0 0 0 3.499 12c0 4.934 4.014 9 8.899 9a8.86 8.86 0 0 0 6.477-2.832l-.127.001c-5.572 0-10.165-4.623-10.165-10.25 0-1.559.352-3.08 1.01-4.455M10.896 1.5c0 .322.1.62.273.863.412.54 1.154.63 1.219.637-.117-.145-1.492-1.84-1.492-1.5"/></svg>