<?xml version="1.0" encoding="UTF-8" standalone="no"?>
<!DOCTYPE svg PUBLIC "-//W3C//DTD SVG 1.1//EN" "http://www.w3.org/Graphics/SVG/1.1/DTD/svg11.dtd">
<svg width="100%" height="100%" viewBox="0 0 24 24" version="1.1" xmlns="http://www.w3.org/2000/svg" xmlns:xlink="http://www.w3.org/1999/xlink" xml:space="preserve" xmlns:serif="http://www.serif.com/" style="fill-rule:evenodd;clip-rule:evenodd;stroke-linejoin:round;stroke-miterlimit:2;">
    <g id="Expanded">
        <g transform="matrix(2.98572,0,0,2.62339,-40.3366,-16.9009)">
            <path d="M17.63,6.476L17.7,6.484L17.767,6.507L17.827,6.543L17.88,6.591L17.924,6.65L17.958,6.718L17.98,6.794L17.987,6.876L17.98,6.958L17.958,7.034L17.924,7.103L17.88,7.161L17.827,7.209L17.767,7.246L17.7,7.268L17.63,7.276L17.559,7.268L17.493,7.246L17.432,7.209L17.38,7.161L17.335,7.103L17.302,7.034L17.28,6.958L17.273,6.876L17.28,6.794L17.302,6.718L17.335,6.65L17.38,6.591L17.432,6.543L17.493,6.507L17.559,6.484L17.63,6.476ZM17.63,6.9C17.64,6.9 17.645,6.887 17.645,6.876C17.645,6.865 17.64,6.853 17.63,6.853C17.62,6.853 17.615,6.865 17.615,6.876C17.615,6.887 17.62,6.9 17.63,6.9Z"/>
        </g>
        <g transform="matrix(1.15535,0,0,1.21111,-1.46855,-2.52364)">
            <path d="M11.118,2.992C11.118,3.022 11.119,3.051 11.122,3.08C11.122,3.079 11.122,3.079 11.122,3.079C11.138,3.226 11.194,3.362 11.279,3.477C11.518,3.775 11.946,3.828 11.993,3.833C11.925,3.753 11.398,3.133 11.196,2.994C11.379,2.787 11.573,2.587 11.777,2.397L12,2.92L12,2.158L12.393,2.158C12.752,2.158 13.075,2.366 13.21,2.683C13.346,3 13.266,3.364 13.009,3.603C11.65,4.865 10.881,6.64 10.881,8.494C10.881,12.136 13.856,15.153 17.498,15.153C18.345,15.153 19.184,14.989 19.968,14.671C20.296,14.539 20.675,14.607 20.929,14.844C21.184,15.081 21.264,15.441 21.133,15.756C19.604,19.435 15.986,21.834 12.002,21.834C6.593,21.834 2.12,17.402 2.12,11.992C2.12,6.583 6.591,2.152 12,2.15C11.513,2.15 11.118,2.527 11.118,2.992ZM11.118,2.992C11.118,2.956 11.147,2.961 11.196,2.994C11.171,3.022 11.147,3.05 11.122,3.079C11.119,3.05 11.118,3.021 11.118,2.992ZM10.446,3.986C6.719,4.725 3.885,8.059 3.885,11.992C3.885,16.457 7.537,20.15 12.002,20.15C14.644,20.15 17.081,18.854 18.583,16.766C18.224,16.812 17.862,16.836 17.498,16.836C12.911,16.836 9.116,13.081 9.116,8.494C9.116,6.881 9.586,5.318 10.446,3.986Z"/>
        </g>
    </g>
</svg>
