<?xml version="1.0" encoding="UTF-8" standalone="no"?>
<!DOCTYPE svg PUBLIC "-//W3C//DTD SVG 1.1//EN" "http://www.w3.org/Graphics/SVG/1.1/DTD/svg11.dtd">
<svg width="100%" height="100%" viewBox="0 0 24 24" version="1.1" xmlns="http://www.w3.org/2000/svg" xmlns:xlink="http://www.w3.org/1999/xlink" xml:space="preserve" xmlns:serif="http://www.serif.com/" style="fill-rule:evenodd;clip-rule:evenodd;stroke-linejoin:round;stroke-miterlimit:2;">
    <g id="Expanded">
        <g transform="matrix(1.43524,0,0,1.43524,-4.74097,-5.70484)">
            <path d="M4,20.697C3.615,20.697 3.303,20.385 3.303,20L3.303,16C3.303,15.815 3.377,15.638 3.507,15.507L14.007,5.007C14.668,4.346 15.565,3.975 16.5,3.975C18.434,3.975 20.025,5.566 20.025,7.5C20.025,8.435 19.654,9.332 18.993,9.993L8.493,20.493C8.362,20.623 8.185,20.697 8,20.697L4,20.697ZM4.697,19.303L7.711,19.303L18.007,9.007C18.407,8.608 18.632,8.065 18.632,7.5C18.632,6.331 17.669,5.368 16.5,5.368C15.935,5.368 15.392,5.593 14.993,5.993L4.697,16.289L4.697,19.303Z"/>
        </g>
        <path d="M12.793,7.207C12.403,6.817 12.403,6.183 12.793,5.793C13.183,5.403 13.817,5.403 14.207,5.793L18.207,9.793C18.597,10.183 18.597,10.817 18.207,11.207C17.817,11.597 17.183,11.597 16.793,11.207L12.793,7.207Z"/>
    </g>
</svg>
