<?xml version="1.0" encoding="UTF-8" standalone="no"?>
<!DOCTYPE svg PUBLIC "-//W3C//DTD SVG 1.1//EN" "http://www.w3.org/Graphics/SVG/1.1/DTD/svg11.dtd">
<svg width="100%" height="100%" viewBox="0 0 24 24" version="1.1" xmlns="http://www.w3.org/2000/svg" xmlns:xlink="http://www.w3.org/1999/xlink" xml:space="preserve" xmlns:serif="http://www.serif.com/" style="fill-rule:evenodd;clip-rule:evenodd;stroke-linecap:round;stroke-linejoin:round;">
    <g id="Expanded">
        <g transform="matrix(1.39551,0,0,1.34399,-3.24233,-5.27637)">
            <path d="M9.785,6L18,14.215L15.946,16.269C14.851,17.408 13.338,18.052 11.758,18.052C8.571,18.052 5.948,15.429 5.948,12.242C5.948,10.662 6.592,9.149 7.731,8.054L9.785,6Z" style="fill:none;fill-rule:nonzero;stroke:black;stroke-width:1.46px;"/>
        </g>
        <g transform="matrix(1.33802,-0.33878,-0.338503,1.33927,2.87655,-2.98075)">
            <path d="M3.768,20.32L7.5,16.5" style="fill:none;fill-rule:nonzero;stroke:black;stroke-width:2px;"/>
        </g>
        <g transform="matrix(1.08417,-0.0841667,-0.0841667,1.08417,2.64718,-2.01425)">
            <path d="M15,4L11.5,7.5" style="fill:none;fill-rule:nonzero;stroke:black;stroke-width:2px;"/>
        </g>
        <g transform="matrix(1.13062,-0.130615,-0.130615,1.13062,1.50235,-2.7494)">
            <path d="M20,9L16.5,12.5" style="fill:none;fill-rule:nonzero;stroke:black;stroke-width:2px;"/>
        </g>
    </g>
</svg>
