<?xml version="1.0" encoding="UTF-8" standalone="no"?>
<!DOCTYPE svg PUBLIC "-//W3C//DTD SVG 1.1//EN" "http://www.w3.org/Graphics/SVG/1.1/DTD/svg11.dtd">
<svg width="100%" height="100%" viewBox="0 0 24 24" version="1.1" xmlns="http://www.w3.org/2000/svg" xmlns:xlink="http://www.w3.org/1999/xlink" xml:space="preserve" xmlns:serif="http://www.serif.com/" style="fill-rule:evenodd;clip-rule:evenodd;stroke-linejoin:round;stroke-miterlimit:2;">
    <g id="Expanded">
        <g transform="matrix(1.39551,0,0,1.34399,-3.24233,-5.27637)">
            <path d="M10.282,5.464L18.497,13.679C18.637,13.819 18.717,14.013 18.717,14.215C18.717,14.417 18.637,14.611 18.497,14.751C18.497,14.751 16.447,16.801 16.447,16.801C15.22,18.074 13.526,18.796 11.758,18.796C8.17,18.796 5.231,15.83 5.231,12.242C5.231,10.46 5.955,8.751 7.238,7.514L9.288,5.464C9.565,5.187 10.005,5.187 10.282,5.464ZM9.785,7.033L8.228,8.59C8.225,8.593 8.221,8.597 8.218,8.6C7.227,9.552 6.664,10.868 6.664,12.242C6.664,15.029 8.971,17.308 11.758,17.308C13.146,17.308 14.477,16.744 15.439,15.743C15.442,15.74 15.446,15.736 15.449,15.733C15.449,15.733 16.967,14.215 16.967,14.215L9.785,7.033Z"/>
        </g>
        <g transform="matrix(1.33802,-0.33878,-0.338503,1.33927,2.87655,-2.98075)">
            <path d="M4.478,21.024C4.248,21.26 3.743,21.135 3.351,20.747C2.959,20.358 2.827,19.852 3.057,19.617L6.79,15.796C7.02,15.561 7.525,15.685 7.917,16.074C8.309,16.462 8.44,16.968 8.21,17.204L4.478,21.024Z"/>
        </g>
        <g transform="matrix(1.08417,-0.0841667,-0.0841667,1.08417,2.64718,-2.01425)">
            <path d="M14.293,3.293C14.627,2.959 15.215,3.005 15.605,3.395C15.995,3.785 16.041,4.373 15.707,4.707L12.207,8.207C11.873,8.541 11.285,8.495 10.895,8.105C10.505,7.715 10.459,7.127 10.793,6.793L14.293,3.293Z"/>
        </g>
        <g transform="matrix(1.13062,-0.130615,-0.130615,1.13062,1.50235,-2.7494)">
            <path d="M19.293,8.293C19.602,7.983 20.17,8.049 20.561,8.439C20.951,8.83 21.017,9.398 20.707,9.707L17.207,13.207C16.898,13.517 16.33,13.451 15.939,13.061C15.549,12.67 15.483,12.102 15.793,11.793L19.293,8.293Z"/>
        </g>
    </g>
</svg>
