<svg xmlns="http://www.w3.org/2000/svg" xml:space="preserve" style="fill-rule:evenodd;clip-rule:evenodd;stroke-linejoin:round;stroke-miterlimit:2" viewBox="0 0 24 24"><path d="M7.5 6.676a1.501 1.501 0 0 1-3 0C4.5 3.082 7.531.101 11.246.101h1.499c3.701 0 6.725 2.961 6.747 6.537.13 2.868-1.475 5.482-3.86 6.475-1.44.814-2.226 3.028-2.137 5.353a1.5 1.5 0 1 1-2.999.111c-.136-3.643 1.508-6.94 3.796-8.15a1 1 0 0 1 .148-.068c1.326-.527 2.134-2.023 2.054-3.608l-.003-.075c0-1.976-1.704-3.577-3.746-3.577h-1.5C9.205 3.099 7.5 4.7 7.5 6.676"/><ellipse cx="8.899" cy="22.655" rx="1.555" ry="1.569" transform="matrix(.96474 0 0 .95573 3.429 .755)"/></svg>