<svg xmlns="http://www.w3.org/2000/svg" xml:space="preserve" style="fill-rule:evenodd;clip-rule:evenodd;stroke-linejoin:round;stroke-miterlimit:2" viewBox="0 0 24 24"><path d="M0 3.444A3.46 3.46 0 0 1 3.444 0h17.112A3.46 3.46 0 0 1 24 3.444v17.112A3.46 3.46 0 0 1 20.556 24H3.444A3.46 3.46 0 0 1 0 20.556zm2 0v17.112C2 21.348 2.652 22 3.444 22h17.112c.792 0 1.444-.652 1.444-1.444V3.444C22 2.652 21.348 2 20.556 2H3.444C2.652 2 2 2.652 2 3.444"/><path d="M5 13.269a1.27 1.27 0 0 1 0-2.538h14a1.27 1.27 0 0 1 0 2.538z"/></svg>