<svg xmlns="http://www.w3.org/2000/svg" xml:space="preserve" style="fill-rule:evenodd;clip-rule:evenodd;stroke-linejoin:round;stroke-miterlimit:2" viewBox="0 0 24 24"><path d="M6.5 12c0-3.017 2.483-5.5 5.5-5.5s5.5 2.483 5.5 5.5-2.483 5.5-5.5 5.5-5.5-2.483-5.5-5.5m3 0c0 1.371 1.129 2.5 2.5 2.5s2.5-1.129 2.5-2.5-1.129-2.5-2.5-2.5A2.513 2.513 0 0 0 9.5 12m-8 1.5a1.5 1.5 0 0 1 0-3h1.167a1.5 1.5 0 0 1 0 3zm9-12a1.5 1.5 0 0 1 3 0v1.167a1.5 1.5 0 0 1-3 0zm10.833 12a1.5 1.5 0 0 1 0-3H22.5a1.5 1.5 0 0 1 0 3zM10.5 21.333a1.5 1.5 0 0 1 3 0V22.5a1.5 1.5 0 0 1-3 0zM3.473 5.593a1.5 1.5 0 0 1 2.12-2.12l.818.817A1.5 1.5 0 0 1 4.29 6.41zm14.933-2.12a1.5 1.5 0 0 1 2.121 2.12l-.816.818A1.5 1.5 0 0 1 17.59 4.29zM17.59 19.71a1.5 1.5 0 0 1 2.12-2.121l.817.816a1.5 1.5 0 0 1-2.12 2.121zm-13.3-2.12a1.5 1.5 0 0 1 2.12 2.12l-.816.817a1.5 1.5 0 0 1-2.121-2.12z"/></svg>