<?xml version="1.0" encoding="UTF-8" standalone="no"?>
<!DOCTYPE svg PUBLIC "-//W3C//DTD SVG 1.1//EN" "http://www.w3.org/Graphics/SVG/1.1/DTD/svg11.dtd">
<svg width="100%" height="100%" viewBox="0 0 24 24" version="1.1" xmlns="http://www.w3.org/2000/svg" xmlns:xlink="http://www.w3.org/1999/xlink" xml:space="preserve" xmlns:serif="http://www.serif.com/" style="fill-rule:evenodd;clip-rule:evenodd;stroke-linecap:round;stroke-linejoin:round;">
    <g id="Source">
        <g transform="matrix(1.25,0,0,1.25,-3,-3)">
            <path d="M8,12C8,14.194 9.806,16 12,16C14.194,16 16,14.194 16,12C16,9.806 14.194,8 12,8C9.806,8 8,9.806 8,12" style="fill:none;fill-rule:nonzero;stroke:black;stroke-width:1.6px;"/>
        </g>
        <g transform="matrix(1.22222,0,0,1.22222,-2.66667,-2.66667)">
            <path d="M3,12L4,12M12,3L12,4M20,12L21,12M12,20L12,21M5.6,5.6L6.3,6.3M18.4,5.6L17.7,6.3M17.7,17.7L18.4,18.4M6.3,17.7L5.6,18.4" style="fill:none;fill-rule:nonzero;stroke:black;stroke-width:1.64px;"/>
        </g>
    </g>
    <g id="Expanded">
        <g transform="matrix(1.25,0,0,1.25,-3,-3)">
            <path d="M7.2,12C7.2,9.367 9.367,7.2 12,7.2C14.633,7.2 16.8,9.367 16.8,12C16.8,14.633 14.633,16.8 12,16.8C9.367,16.8 7.2,14.633 7.2,12ZM8.8,12C8.8,13.755 10.245,15.2 12,15.2C13.755,15.2 15.2,13.755 15.2,12C15.2,10.245 13.755,8.8 12,8.8C10.245,8.8 8.8,10.245 8.8,12Z"/>
        </g>
        <g transform="matrix(1.22222,0,0,1.22222,-2.66667,-2.66667)">
            <path d="M3,12.818C2.548,12.818 2.182,12.452 2.182,12C2.182,11.548 2.548,11.182 3,11.182L4,11.182C4.452,11.182 4.818,11.548 4.818,12C4.818,12.452 4.452,12.818 4,12.818L3,12.818ZM11.182,3C11.182,2.548 11.548,2.182 12,2.182C12.452,2.182 12.818,2.548 12.818,3L12.818,4C12.818,4.452 12.452,4.818 12,4.818C11.548,4.818 11.182,4.452 11.182,4L11.182,3ZM20,12.818C19.548,12.818 19.182,12.452 19.182,12C19.182,11.548 19.548,11.182 20,11.182L21,11.182C21.452,11.182 21.818,11.548 21.818,12C21.818,12.452 21.452,12.818 21,12.818L20,12.818ZM11.182,20C11.182,19.548 11.548,19.182 12,19.182C12.452,19.182 12.818,19.548 12.818,20L12.818,21C12.818,21.452 12.452,21.818 12,21.818C11.548,21.818 11.182,21.452 11.182,21L11.182,20ZM5.021,6.179C4.702,5.859 4.702,5.341 5.021,5.021C5.341,4.702 5.859,4.702 6.179,5.021L6.879,5.721C7.198,6.041 7.198,6.559 6.879,6.879C6.559,7.198 6.041,7.198 5.721,6.879L5.021,6.179ZM17.821,5.021C18.141,4.702 18.659,4.702 18.979,5.021C19.298,5.341 19.298,5.859 18.979,6.179L18.279,6.879C17.959,7.198 17.441,7.198 17.121,6.879C16.802,6.559 16.802,6.041 17.121,5.721L17.821,5.021ZM17.121,18.279C16.802,17.959 16.802,17.441 17.121,17.121C17.441,16.802 17.959,16.802 18.279,17.121L18.979,17.821C19.298,18.141 19.298,18.659 18.979,18.979C18.659,19.298 18.141,19.298 17.821,18.979L17.121,18.279ZM5.721,17.121C6.041,16.802 6.559,16.802 6.879,17.121C7.198,17.441 7.198,17.959 6.879,18.279L6.179,18.979C5.859,19.298 5.341,19.298 5.021,18.979C4.702,18.659 4.702,18.141 5.021,17.821L5.721,17.121Z"/>
        </g>
    </g>
</svg>
